<mxfile host="Electron" modified="2024-08-02T20:23:47.062Z" agent="Mozilla/5.0 (Windows NT 10.0; Win64; x64) AppleWebKit/537.36 (KHTML, like Gecko) draw.io/24.5.3 Chrome/124.0.6367.207 Electron/30.0.6 Safari/537.36" etag="aJ_DB-BqSR7sxuu9voni" version="24.5.3" type="device">
  <diagram name="main" id="VfAYBPDxunqUFfgM3Roo">
    <mxGraphModel dx="2280" dy="825" grid="1" gridSize="10" guides="1" tooltips="1" connect="1" arrows="1" fold="1" page="1" pageScale="1" pageWidth="850" pageHeight="1100" background="#263238" math="0" shadow="0">
      <root>
        <mxCell id="0" />
        <mxCell id="1" parent="0" />
        <object label="" id="main">
          <mxCell style="rounded=1;whiteSpace=wrap;html=1;strokeColor=none;fillColor=#cceff0;arcSize=4;fontColor=#263238;" vertex="1" parent="1">
            <mxGeometry x="-522" y="630" width="1152" height="190" as="geometry" />
          </mxCell>
        </object>
        <UserObject label="&lt;b&gt;AWS Systems Manager&lt;/b&gt;" type="icon" id="4WxjT_tAExUXTBGxdPpf-14">
          <mxCell style="sketch=0;points=[[0,0,0],[0.25,0,0],[0.5,0,0],[0.75,0,0],[1,0,0],[0,1,0],[0.25,1,0],[0.5,1,0],[0.75,1,0],[1,1,0],[0,0.25,0],[0,0.5,0],[0,0.75,0],[1,0.25,0],[1,0.5,0],[1,0.75,0]];points=[[0,0,0],[0.25,0,0],[0.5,0,0],[0.75,0,0],[1,0,0],[0,1,0],[0.25,1,0],[0.5,1,0],[0.75,1,0],[1,1,0],[0,0.25,0],[0,0.5,0],[0,0.75,0],[1,0.25,0],[1,0.5,0],[1,0.75,0]];outlineConnect=0;fontColor=#232F3E;fillColor=#263238;strokeColor=#00adb5;dashed=0;verticalLabelPosition=bottom;verticalAlign=top;align=center;html=1;fontSize=12;fontStyle=0;aspect=fixed;shape=mxgraph.aws4.resourceIcon;resIcon=mxgraph.aws4.systems_manager;" vertex="1" parent="1">
            <mxGeometry x="-460" y="670" width="100" height="100" as="geometry" />
          </mxCell>
        </UserObject>
        <mxCell id="4WxjT_tAExUXTBGxdPpf-15" value="&lt;b&gt;EC2 workstation&lt;/b&gt;" style="sketch=0;points=[[0,0,0],[0.25,0,0],[0.5,0,0],[0.75,0,0],[1,0,0],[0,1,0],[0.25,1,0],[0.5,1,0],[0.75,1,0],[1,1,0],[0,0.25,0],[0,0.5,0],[0,0.75,0],[1,0.25,0],[1,0.5,0],[1,0.75,0]];outlineConnect=0;fontColor=#232F3E;fillColor=#263238;strokeColor=#00adb5;dashed=0;verticalLabelPosition=bottom;verticalAlign=top;align=center;html=1;fontSize=12;fontStyle=0;aspect=fixed;shape=mxgraph.aws4.resourceIcon;resIcon=mxgraph.aws4.ec2;" vertex="1" parent="1">
          <mxGeometry x="-220" y="670" width="100" height="100" as="geometry" />
        </mxCell>
        <mxCell id="4WxjT_tAExUXTBGxdPpf-18" value="&lt;b&gt;AWS Lambda&lt;/b&gt;" style="sketch=0;points=[[0,0,0],[0.25,0,0],[0.5,0,0],[0.75,0,0],[1,0,0],[0,1,0],[0.25,1,0],[0.5,1,0],[0.75,1,0],[1,1,0],[0,0.25,0],[0,0.5,0],[0,0.75,0],[1,0.25,0],[1,0.5,0],[1,0.75,0]];outlineConnect=0;fontColor=#232F3E;fillColor=#263238;strokeColor=#00adb5;dashed=0;verticalLabelPosition=bottom;verticalAlign=top;align=center;html=1;fontSize=12;fontStyle=0;aspect=fixed;shape=mxgraph.aws4.resourceIcon;resIcon=mxgraph.aws4.lambda;" vertex="1" parent="1">
          <mxGeometry x="260" y="670" width="100" height="100" as="geometry" />
        </mxCell>
        <mxCell id="4WxjT_tAExUXTBGxdPpf-19" value="&lt;b&gt;CloudWatch Metrics&lt;/b&gt;" style="sketch=0;points=[[0,0,0],[0.25,0,0],[0.5,0,0],[0.75,0,0],[1,0,0],[0,1,0],[0.25,1,0],[0.5,1,0],[0.75,1,0],[1,1,0],[0,0.25,0],[0,0.5,0],[0,0.75,0],[1,0.25,0],[1,0.5,0],[1,0.75,0]];points=[[0,0,0],[0.25,0,0],[0.5,0,0],[0.75,0,0],[1,0,0],[0,1,0],[0.25,1,0],[0.5,1,0],[0.75,1,0],[1,1,0],[0,0.25,0],[0,0.5,0],[0,0.75,0],[1,0.25,0],[1,0.5,0],[1,0.75,0]];outlineConnect=0;fontColor=#263238;fillColor=#263238;strokeColor=#00adb5;dashed=0;verticalLabelPosition=bottom;verticalAlign=top;align=center;html=1;fontSize=12;fontStyle=0;aspect=fixed;shape=mxgraph.aws4.resourceIcon;resIcon=mxgraph.aws4.cloudwatch_2;" vertex="1" parent="1">
          <mxGeometry x="500" y="670" width="100" height="100" as="geometry" />
        </mxCell>
        <mxCell id="4WxjT_tAExUXTBGxdPpf-21" value="Install and configure&lt;div&gt;CW agent&lt;/div&gt;" style="edgeStyle=orthogonalEdgeStyle;rounded=0;orthogonalLoop=1;jettySize=auto;html=1;dashed=1;flowAnimation=1;strokeWidth=3;flowAnimationDuration=1000;fixDash=0;anchorPointDirection=1;snapToPoint=0;flowAnimationDirection=normal;labelBackgroundColor=none;textShadow=0;fontSize=12;verticalAlign=bottom;fontColor=#263238;strokeColor=#263238;exitX=1;exitY=0.5;exitDx=0;exitDy=0;targetPerimeterSpacing=0;jumpStyle=none;jumpSize=6;endSize=6;shadow=0;entryX=0;entryY=0.5;entryDx=0;entryDy=0;entryPerimeter=0;exitPerimeter=0;" edge="1" parent="1" source="4WxjT_tAExUXTBGxdPpf-14" target="4WxjT_tAExUXTBGxdPpf-15">
          <mxGeometry x="-0.0588" relative="1" as="geometry">
            <mxPoint x="-360" y="719.5" as="sourcePoint" />
            <mxPoint x="-290" y="720" as="targetPoint" />
            <mxPoint as="offset" />
          </mxGeometry>
        </mxCell>
        <mxCell id="4WxjT_tAExUXTBGxdPpf-22" value="" style="edgeLabel;html=1;align=center;verticalAlign=middle;resizable=0;points=[];dashed=0;sketch=0;strokeColor=#00adb5;fontFamily=Helvetica;fontSize=12;fontColor=#263238;fontStyle=0;labelBackgroundColor=none;fillColor=#263238;" vertex="1" connectable="0" parent="4WxjT_tAExUXTBGxdPpf-21">
          <mxGeometry x="-0.1384" y="2" relative="1" as="geometry">
            <mxPoint as="offset" />
          </mxGeometry>
        </mxCell>
        <mxCell id="4WxjT_tAExUXTBGxdPpf-23" value="" style="edgeLabel;html=1;align=center;verticalAlign=middle;resizable=0;points=[];dashed=0;sketch=0;strokeColor=#00adb5;fontFamily=Helvetica;fontSize=12;fontColor=#263238;fontStyle=0;labelBackgroundColor=none;fillColor=#263238;" vertex="1" connectable="0" parent="4WxjT_tAExUXTBGxdPpf-21">
          <mxGeometry x="-0.0375" relative="1" as="geometry">
            <mxPoint as="offset" />
          </mxGeometry>
        </mxCell>
        <mxCell id="4WxjT_tAExUXTBGxdPpf-24" value="" style="edgeLabel;html=1;align=center;verticalAlign=top;resizable=0;points=[];dashed=0;sketch=0;strokeColor=#00adb5;fontFamily=Helvetica;fontSize=12;fontColor=#263238;fontStyle=0;labelBackgroundColor=none;fillColor=#263238;" vertex="1" connectable="0" parent="4WxjT_tAExUXTBGxdPpf-21">
          <mxGeometry x="-0.1888" relative="1" as="geometry">
            <mxPoint as="offset" />
          </mxGeometry>
        </mxCell>
        <mxCell id="4WxjT_tAExUXTBGxdPpf-25" value="Push logs" style="edgeStyle=orthogonalEdgeStyle;rounded=0;orthogonalLoop=1;jettySize=auto;html=1;dashed=1;flowAnimation=1;strokeWidth=3;flowAnimationDuration=1000;fixDash=0;anchorPointDirection=1;snapToPoint=0;flowAnimationDirection=normal;labelBackgroundColor=none;textShadow=0;fontSize=12;verticalAlign=bottom;fontColor=#263238;strokeColor=#263238;targetPerimeterSpacing=0;jumpStyle=none;jumpSize=6;endSize=6;shadow=0;entryX=0;entryY=0.5;entryDx=0;entryDy=0;exitX=1;exitY=0.5;exitDx=0;exitDy=0;exitPerimeter=0;" edge="1" parent="1" source="4WxjT_tAExUXTBGxdPpf-15" target="4WxjT_tAExUXTBGxdPpf-38">
          <mxGeometry x="-0.0588" relative="1" as="geometry">
            <mxPoint x="-140" y="720" as="sourcePoint" />
            <mxPoint x="-67" y="720" as="targetPoint" />
            <mxPoint as="offset" />
          </mxGeometry>
        </mxCell>
        <mxCell id="4WxjT_tAExUXTBGxdPpf-26" value="" style="edgeLabel;html=1;align=center;verticalAlign=middle;resizable=0;points=[];dashed=0;sketch=0;strokeColor=#00adb5;fontFamily=Helvetica;fontSize=12;fontColor=#263238;fontStyle=0;labelBackgroundColor=none;fillColor=#263238;" vertex="1" connectable="0" parent="4WxjT_tAExUXTBGxdPpf-25">
          <mxGeometry x="-0.1384" y="2" relative="1" as="geometry">
            <mxPoint as="offset" />
          </mxGeometry>
        </mxCell>
        <mxCell id="4WxjT_tAExUXTBGxdPpf-27" value="" style="edgeLabel;html=1;align=center;verticalAlign=middle;resizable=0;points=[];dashed=0;sketch=0;strokeColor=#00adb5;fontFamily=Helvetica;fontSize=12;fontColor=#263238;fontStyle=0;labelBackgroundColor=none;fillColor=#263238;" vertex="1" connectable="0" parent="4WxjT_tAExUXTBGxdPpf-25">
          <mxGeometry x="-0.0375" relative="1" as="geometry">
            <mxPoint as="offset" />
          </mxGeometry>
        </mxCell>
        <mxCell id="4WxjT_tAExUXTBGxdPpf-28" value="" style="edgeLabel;html=1;align=center;verticalAlign=top;resizable=0;points=[];dashed=0;sketch=0;strokeColor=#00adb5;fontFamily=Helvetica;fontSize=12;fontColor=#263238;fontStyle=0;labelBackgroundColor=none;fillColor=#263238;" vertex="1" connectable="0" parent="4WxjT_tAExUXTBGxdPpf-25">
          <mxGeometry x="-0.1888" relative="1" as="geometry">
            <mxPoint as="offset" />
          </mxGeometry>
        </mxCell>
        <mxCell id="4WxjT_tAExUXTBGxdPpf-29" value="Process metrics&lt;div&gt;and push to CW&lt;/div&gt;" style="edgeStyle=orthogonalEdgeStyle;rounded=0;orthogonalLoop=1;jettySize=auto;html=1;dashed=1;flowAnimation=1;strokeWidth=3;flowAnimationDuration=1000;fixDash=0;anchorPointDirection=1;snapToPoint=0;flowAnimationDirection=normal;labelBackgroundColor=none;textShadow=0;fontSize=12;verticalAlign=bottom;fontColor=#263238;strokeColor=#263238;targetPerimeterSpacing=0;jumpStyle=none;jumpSize=6;endSize=6;shadow=0;entryX=0;entryY=0.5;entryDx=0;entryDy=0;entryPerimeter=0;exitX=1;exitY=0.5;exitDx=0;exitDy=0;exitPerimeter=0;" edge="1" parent="1" source="4WxjT_tAExUXTBGxdPpf-18" target="4WxjT_tAExUXTBGxdPpf-19">
          <mxGeometry x="-0.0588" relative="1" as="geometry">
            <mxPoint x="210" y="710" as="sourcePoint" />
            <mxPoint x="307" y="710" as="targetPoint" />
            <mxPoint as="offset" />
          </mxGeometry>
        </mxCell>
        <mxCell id="4WxjT_tAExUXTBGxdPpf-30" value="" style="edgeLabel;html=1;align=center;verticalAlign=middle;resizable=0;points=[];dashed=0;sketch=0;strokeColor=#00adb5;fontFamily=Helvetica;fontSize=12;fontColor=#263238;fontStyle=0;labelBackgroundColor=none;fillColor=#263238;" vertex="1" connectable="0" parent="4WxjT_tAExUXTBGxdPpf-29">
          <mxGeometry x="-0.1384" y="2" relative="1" as="geometry">
            <mxPoint as="offset" />
          </mxGeometry>
        </mxCell>
        <mxCell id="4WxjT_tAExUXTBGxdPpf-31" value="" style="edgeLabel;html=1;align=center;verticalAlign=middle;resizable=0;points=[];dashed=0;sketch=0;strokeColor=#00adb5;fontFamily=Helvetica;fontSize=12;fontColor=#263238;fontStyle=0;labelBackgroundColor=none;fillColor=#263238;" vertex="1" connectable="0" parent="4WxjT_tAExUXTBGxdPpf-29">
          <mxGeometry x="-0.0375" relative="1" as="geometry">
            <mxPoint as="offset" />
          </mxGeometry>
        </mxCell>
        <mxCell id="4WxjT_tAExUXTBGxdPpf-32" value="" style="edgeLabel;html=1;align=center;verticalAlign=top;resizable=0;points=[];dashed=0;sketch=0;strokeColor=#00adb5;fontFamily=Helvetica;fontSize=12;fontColor=#263238;fontStyle=0;labelBackgroundColor=none;fillColor=#263238;" vertex="1" connectable="0" parent="4WxjT_tAExUXTBGxdPpf-29">
          <mxGeometry x="-0.1888" relative="1" as="geometry">
            <mxPoint as="offset" />
          </mxGeometry>
        </mxCell>
        <mxCell id="4WxjT_tAExUXTBGxdPpf-33" value="Filter logs and&lt;div&gt;push to lambda&lt;/div&gt;" style="edgeStyle=orthogonalEdgeStyle;rounded=0;orthogonalLoop=1;jettySize=auto;html=1;dashed=1;flowAnimation=1;strokeWidth=3;flowAnimationDuration=1000;fixDash=0;anchorPointDirection=1;snapToPoint=0;flowAnimationDirection=normal;labelBackgroundColor=none;textShadow=0;fontSize=12;verticalAlign=bottom;fontColor=#263238;strokeColor=#263238;targetPerimeterSpacing=0;jumpStyle=none;jumpSize=6;endSize=6;shadow=0;entryX=0;entryY=0.5;entryDx=0;entryDy=0;entryPerimeter=0;exitX=1;exitY=0.5;exitDx=0;exitDy=0;" edge="1" parent="1" source="4WxjT_tAExUXTBGxdPpf-38" target="4WxjT_tAExUXTBGxdPpf-18">
          <mxGeometry x="-0.0588" relative="1" as="geometry">
            <mxPoint x="60" y="720" as="sourcePoint" />
            <mxPoint x="-47" y="740" as="targetPoint" />
            <mxPoint as="offset" />
          </mxGeometry>
        </mxCell>
        <mxCell id="4WxjT_tAExUXTBGxdPpf-34" value="" style="edgeLabel;html=1;align=center;verticalAlign=middle;resizable=0;points=[];dashed=0;sketch=0;strokeColor=#00adb5;fontFamily=Helvetica;fontSize=12;fontColor=#263238;fontStyle=0;labelBackgroundColor=none;fillColor=#263238;" vertex="1" connectable="0" parent="4WxjT_tAExUXTBGxdPpf-33">
          <mxGeometry x="-0.1384" y="2" relative="1" as="geometry">
            <mxPoint as="offset" />
          </mxGeometry>
        </mxCell>
        <mxCell id="4WxjT_tAExUXTBGxdPpf-35" value="" style="edgeLabel;html=1;align=center;verticalAlign=middle;resizable=0;points=[];dashed=0;sketch=0;strokeColor=#00adb5;fontFamily=Helvetica;fontSize=12;fontColor=#263238;fontStyle=0;labelBackgroundColor=none;fillColor=#263238;" vertex="1" connectable="0" parent="4WxjT_tAExUXTBGxdPpf-33">
          <mxGeometry x="-0.0375" relative="1" as="geometry">
            <mxPoint as="offset" />
          </mxGeometry>
        </mxCell>
        <mxCell id="4WxjT_tAExUXTBGxdPpf-36" value="" style="edgeLabel;html=1;align=center;verticalAlign=top;resizable=0;points=[];dashed=0;sketch=0;strokeColor=#00adb5;fontFamily=Helvetica;fontSize=12;fontColor=#263238;fontStyle=0;labelBackgroundColor=none;fillColor=#263238;" vertex="1" connectable="0" parent="4WxjT_tAExUXTBGxdPpf-33">
          <mxGeometry x="-0.1888" relative="1" as="geometry">
            <mxPoint as="offset" />
          </mxGeometry>
        </mxCell>
        <mxCell id="4WxjT_tAExUXTBGxdPpf-40" value="" style="group" vertex="1" connectable="0" parent="1">
          <mxGeometry x="20" y="670" width="100" height="100" as="geometry" />
        </mxCell>
        <mxCell id="4WxjT_tAExUXTBGxdPpf-38" value="CloudWatch Logs" style="html=1;aspect=fixed;strokeColor=none;fillColor=#263238;labelPosition=center;verticalLabelPosition=bottom;align=center;verticalAlign=top;fontStyle=1;fontColor=#263238;" vertex="1" parent="4WxjT_tAExUXTBGxdPpf-40">
          <mxGeometry width="100" height="100" as="geometry" />
        </mxCell>
        <mxCell id="4WxjT_tAExUXTBGxdPpf-37" value="" style="sketch=0;outlineConnect=0;fontColor=#232F3E;gradientColor=none;fillColor=#00adb5;strokeColor=none;dashed=0;verticalLabelPosition=bottom;verticalAlign=top;align=center;html=1;fontSize=12;fontStyle=0;aspect=fixed;pointerEvents=1;shape=mxgraph.aws4.cloudwatch_logs;" vertex="1" parent="4WxjT_tAExUXTBGxdPpf-40">
          <mxGeometry x="11" y="21" width="78" height="58" as="geometry" />
        </mxCell>
      </root>
    </mxGraphModel>
  </diagram>
</mxfile>
